<svg id="Слой_1" data-name="Слой 1" xmlns="http://www.w3.org/2000/svg" viewBox="0 0 547.18 204.62"><defs><style>.cls-1{fill:#fff;}</style></defs><path class="cls-1" d="M227.16,211.82V182.23h6.92v11.4h12v-11.4H253v29.59h-6.92v-13h-12v13Z" transform="translate(-12.06 -17.83)"/><path class="cls-1" d="M287.5,211.82h-6.59a23.66,23.66,0,0,1-1.06-6q-2.76,6.6-10.37,6.59a10.33,10.33,0,0,1-7.36-2.59,8.54,8.54,0,0,1-2.77-6.52q0-10.19,18.53-10.19l2,0v-2.23c0-3.06-2.16-4.6-6.49-4.6s-6.59,1.54-7.16,4.6l-5.88-.85a8.56,8.56,0,0,1,3.94-6.08q3.47-2.38,10-2.39a23.54,23.54,0,0,1,5.79.58,9,9,0,0,1,3.8,1.93,7.33,7.33,0,0,1,2.13,3,17,17,0,0,1,.6,5.4v13.36A20.89,20.89,0,0,0,287.5,211.82Zm-7.65-15.06q-13.41,0-13.41,6.18a4.22,4.22,0,0,0,1.35,3.15,5.67,5.67,0,0,0,4.08,1.31,7.32,7.32,0,0,0,6-2.42,8.3,8.3,0,0,0,2-5.49Z" transform="translate(-12.06 -17.83)"/><path class="cls-1" d="M336.61,211.82H330a23.66,23.66,0,0,1-1.06-6q-2.76,6.6-10.37,6.59a10.35,10.35,0,0,1-7.36-2.59,8.54,8.54,0,0,1-2.77-6.52q0-10.19,18.53-10.19l2,0v-2.23c0-3.06-2.16-4.6-6.49-4.6s-6.59,1.54-7.16,4.6l-5.88-.85a8.59,8.59,0,0,1,3.94-6.08q3.47-2.38,10-2.39a23.68,23.68,0,0,1,5.8.58,9,9,0,0,1,3.79,1.93,7.46,7.46,0,0,1,2.14,3,17.39,17.39,0,0,1,.59,5.4v13.36A20.89,20.89,0,0,0,336.61,211.82ZM329,196.76q-13.41,0-13.4,6.18a4.19,4.19,0,0,0,1.35,3.15A5.63,5.63,0,0,0,321,207.4a7.34,7.34,0,0,0,6-2.42,8.35,8.35,0,0,0,2-5.49Z" transform="translate(-12.06 -17.83)"/><path class="cls-1" d="M361.66,201l5.95.59q-1.16,5.57-4.46,8.23a12.28,12.28,0,0,1-8,2.66q-6.35,0-9.75-4.46A17.48,17.48,0,0,1,342,197a16.38,16.38,0,0,1,3.73-11,12.43,12.43,0,0,1,9.95-4.37q10,0,11.92,10.2l-5.95.79q-.78-5.5-5.61-5.51a5.38,5.38,0,0,0-5.11,3,15.06,15.06,0,0,0-1.59,7.19,12.23,12.23,0,0,0,1.65,6.91,5.28,5.28,0,0,0,4.63,2.43Q360.18,206.6,361.66,201Z" transform="translate(-12.06 -17.83)"/><path class="cls-1" d="M368.46,211.82l9.8-29.59h8.16l9.52,29.59h-7.22l-6.91-24.41-7.74,24.41Z" transform="translate(-12.06 -17.83)"/><path class="cls-1" d="M400.13,211.82V182.23H407V193h8.07q5.25,0,7.72,2.72a9.71,9.71,0,0,1,2.48,6.77,8.77,8.77,0,0,1-2.69,6.87q-2.69,2.41-7.51,2.42Zm6.91-5.19h6.71a5.42,5.42,0,0,0,3.65-1,4,4,0,0,0,1.11-3.18c0-3-1.59-4.57-4.76-4.57H407Zm22.24,5.19V182.23h6.91v29.59Z" transform="translate(-12.06 -17.83)"/><path class="cls-1" d="M462,192.48l10.68,19.34h-7.44l-8-14.3-5.46,5.57v8.73h-6.92V182.23h6.92V191c0,1.89-.08,3.58-.22,5.07a40,40,0,0,1,2.88-3.31l10.29-10.55h6.79Z" transform="translate(-12.06 -17.83)"/><path class="cls-1" d="M498.84,182.23l-11.93,33.69a11.42,11.42,0,0,1-3,4.82,7.74,7.74,0,0,1-5.36,1.71c-.91,0-2.23-.07-4-.2V217l3.3.05a6,6,0,0,0,3.24-.68,4.69,4.69,0,0,0,1.65-2.45,12.12,12.12,0,0,0,.6-2.05,13.44,13.44,0,0,0-.63-1.82l-10.53-27.77h7.25l7.43,19.51,6.4-19.51Z" transform="translate(-12.06 -17.83)"/><path class="cls-1" d="M498,211.82l9.79-29.59h8.16l9.53,29.59h-7.22l-6.92-24.41-7.73,24.41Z" transform="translate(-12.06 -17.83)"/><path class="cls-1" d="M548.8,202.39l6.24.82a12.58,12.58,0,0,1-4.73,6.62,14.4,14.4,0,0,1-8.83,2.6,13.4,13.4,0,0,1-10.25-4.13q-3.88-4.12-3.88-11.19a16.06,16.06,0,0,1,3.91-11.1q3.91-4.39,10.62-4.4,6.55,0,10.13,4.34a16.88,16.88,0,0,1,3.58,11.13l0,.76h-21a16.21,16.21,0,0,0,.59,4.84,6.47,6.47,0,0,0,2.35,3.16,7,7,0,0,0,4.4,1.35A6.8,6.8,0,0,0,548.8,202.39Zm-.43-8.85a7.28,7.28,0,0,0-2-5.22,6.87,6.87,0,0,0-9.6-.13,8.38,8.38,0,0,0-2.24,5.35Z" transform="translate(-12.06 -17.83)"/><path class="cls-1" d="M108.73,28V40.38L42.31,133.15h67.26v19H12.06V139.92L78.58,47.06H13.73V28Z" transform="translate(-12.06 -17.83)"/><path class="cls-1" d="M130,17.83h23.1V41.67H130Zm.55,44.44h22v89.9h-22Z" transform="translate(-12.06 -17.83)"/><path class="cls-1" d="M222.19,154.49a31.55,31.55,0,0,1-13.12-2.65,32.36,32.36,0,0,1-9.79-6.54h-.37c.06,1.24.12,3,.18,5.24s.1,4.72.1,7.38v37.39h-22v-133h19.3l.92,10.11h.37a32.48,32.48,0,0,1,10.49-8.86A30.58,30.58,0,0,1,223.12,60a39.89,39.89,0,0,1,14.43,2.74,34.71,34.71,0,0,1,12.57,8.4,41.56,41.56,0,0,1,8.77,14.28A57.66,57.66,0,0,1,262.18,106q0,12.52-3.53,21.66a44.8,44.8,0,0,1-9.27,15.12,37.16,37.16,0,0,1-27.19,11.74Zm-2.87-76.82a24,24,0,0,0-10.95,2.83,31.16,31.16,0,0,0-9.18,7.38V128a26.25,26.25,0,0,0,3.34,3.16,27.19,27.19,0,0,0,4.36,2.87,26.36,26.36,0,0,0,5.33,2.14,22.26,22.26,0,0,0,6.08.83A18.1,18.1,0,0,0,234,128.6a30.32,30.32,0,0,0,4-9.51,50.16,50.16,0,0,0,1.39-12.29A50.25,50.25,0,0,0,238,94.09,26.87,26.87,0,0,0,233.93,85a17.44,17.44,0,0,0-6.36-5.47A18.13,18.13,0,0,0,219.32,77.67Z" transform="translate(-12.06 -17.83)"/><path class="cls-1" d="M282.59,152.17V17.83h22V152.17Z" transform="translate(-12.06 -17.83)"/><path class="cls-1" d="M329.63,17.83h23.1V41.67h-23.1Zm.55,44.44h22v89.9h-22Z" transform="translate(-12.06 -17.83)"/><path class="cls-1" d="M397.07,74.79h.37a33.51,33.51,0,0,1,4.92-5.47,34.17,34.17,0,0,1,6.77-4.73,39.82,39.82,0,0,1,8.4-3.29A36.83,36.83,0,0,1,427.32,60a39.93,39.93,0,0,1,9.51,1.12,28.38,28.38,0,0,1,8.39,3.48A25.45,25.45,0,0,1,452,70.76a28.63,28.63,0,0,1,4.59,8.95A29.79,29.79,0,0,1,457.79,86q.33,3.39.33,7.84v58.36h-22V97.25a58.16,58.16,0,0,0-.28-6.22,18.29,18.29,0,0,0-1-4.55,11.36,11.36,0,0,0-5.06-6.12,16.8,16.8,0,0,0-8.21-1.85,26.66,26.66,0,0,0-12.29,3,31.65,31.65,0,0,0-10.44,8.77v61.88h-22V62.27H395Z" transform="translate(-12.06 -17.83)"/><path class="cls-1" d="M528.53,136.77a72.46,72.46,0,0,0,13.36-1.3,103.53,103.53,0,0,0,14.1-3.71v17.53a65.82,65.82,0,0,1-13.08,3.53,98.3,98.3,0,0,1-18.27,1.67A65.53,65.53,0,0,1,506.5,152a39.39,39.39,0,0,1-15-7.93,38.08,38.08,0,0,1-10.16-14.2q-3.76-8.72-3.76-21.15a59.65,59.65,0,0,1,3.52-21.43,43.65,43.65,0,0,1,9.47-15.22,38.87,38.87,0,0,1,13.59-9A42.77,42.77,0,0,1,520,60a46,46,0,0,1,15.72,2.6,31.4,31.4,0,0,1,12.43,8.17,38.05,38.05,0,0,1,8.17,14.33,65.7,65.7,0,0,1,2.92,20.73q-.09,4.65-.28,7.89H500.05a27,27,0,0,0,2.78,10.62,20.62,20.62,0,0,0,6.08,7.15,25.25,25.25,0,0,0,8.77,4A44.93,44.93,0,0,0,528.53,136.77Zm-8.81-59.56a17.17,17.17,0,0,0-7.42,1.53,17.44,17.44,0,0,0-5.62,4.17,20.44,20.44,0,0,0-3.75,6.17,29.7,29.7,0,0,0-1.86,7.52h35.35a25.89,25.89,0,0,0-1.07-7.52,18.55,18.55,0,0,0-3.15-6.17,15,15,0,0,0-5.2-4.17A16.3,16.3,0,0,0,519.72,77.21Z" transform="translate(-12.06 -17.83)"/></svg>