<svg id="Слой_1" data-name="Слой 1" xmlns="http://www.w3.org/2000/svg" viewBox="0 0 37.43 35.75"><defs><style>.cls-1{fill:#fff;}</style></defs><path class="cls-1" d="M21.4,3,26,12.27a1.58,1.58,0,0,0,1.18.85l10.23,1.49a1.55,1.55,0,0,1,.87,2.65l-7.41,7.22a1.54,1.54,0,0,0-.45,1.38l1.75,10.19a1.55,1.55,0,0,1-2.26,1.64l-9.16-4.81a1.53,1.53,0,0,0-1.44,0l-9.16,4.81a1.55,1.55,0,0,1-2.26-1.64L9.61,25.86a1.54,1.54,0,0,0-.45-1.38L1.75,17.26a1.55,1.55,0,0,1,.87-2.65l10.23-1.49A1.58,1.58,0,0,0,14,12.27L18.6,3A1.56,1.56,0,0,1,21.4,3Z" transform="translate(-1.28 -2.12)"/></svg>