<svg id="Слой_1" data-name="Слой 1" xmlns="http://www.w3.org/2000/svg" viewBox="0 0 41.79 41.79"><defs><style>.cls-1{fill:none;stroke:#000;stroke-miterlimit:10;stroke-width:2.83px;}</style></defs><rect class="cls-1" x="1.42" y="1.42" width="38.96" height="38.96" rx="10.04"/><path d="M18.8,21.24a3.5,3.5,0,0,1,.27-1.5,1.67,1.67,0,0,1,.28-.46c.53-.54,1-1.12,1.63-1.62a4.69,4.69,0,0,1,.68-.49,2.25,2.25,0,0,1,2.5.06,5.56,5.56,0,0,1,1.11,1,9.67,9.67,0,0,1,1.51,2.29,2.53,2.53,0,0,1,.2,1.71,2.72,2.72,0,0,1-.52,1,9.18,9.18,0,0,1-1,1.06,1.16,1.16,0,0,0-.35,1.23,4,4,0,0,0,.48,1.13,14,14,0,0,0,1.72,2.27A33.59,33.59,0,0,0,31.61,33a7.56,7.56,0,0,0,1.82,1.12,2.15,2.15,0,0,0,.9.2A1,1,0,0,0,35,34c.31-.31.61-.63.94-.93a4.64,4.64,0,0,1,.61-.46,2.3,2.3,0,0,1,2.12-.11,4.91,4.91,0,0,1,.89.44,10.86,10.86,0,0,1,2,1.59,4.06,4.06,0,0,1,.57.74,2.19,2.19,0,0,1,.05,2.35,6,6,0,0,1-1.17,1.43l-.9.87a2.43,2.43,0,0,1-1.44.59,7.26,7.26,0,0,1-2.85-.31A18.29,18.29,0,0,1,31,38,31.67,31.67,0,0,1,24.14,32a26.11,26.11,0,0,1-3.91-5.74,14.06,14.06,0,0,1-1.29-3.67A6.31,6.31,0,0,1,18.8,21.24Z" transform="translate(-9.78 -7.8)"/></svg>